<mxfile host="Electron" modified="2024-03-30T21:38:26.332Z" agent="Mozilla/5.0 (Windows NT 10.0; Win64; x64) AppleWebKit/537.36 (KHTML, like Gecko) draw.io/22.0.2 Chrome/114.0.5735.289 Electron/25.8.4 Safari/537.36" etag="72lI7vjr4jtmV5rHPdl2" version="22.0.2" type="device">
  <diagram name="Seite-1" id="0LI1Y8Wc7NuOOd6hckuf">
    <mxGraphModel dx="2514" dy="1497" grid="1" gridSize="10" guides="1" tooltips="1" connect="1" arrows="1" fold="1" page="1" pageScale="1" pageWidth="827" pageHeight="1169" math="0" shadow="0">
      <root>
        <mxCell id="0" />
        <mxCell id="1" parent="0" />
        <mxCell id="SKR75D1-UtrBje3gi9Va-2" style="edgeStyle=orthogonalEdgeStyle;rounded=0;orthogonalLoop=1;jettySize=auto;html=1;exitX=0.5;exitY=1;exitDx=0;exitDy=0;" parent="1" source="SKR75D1-UtrBje3gi9Va-1" edge="1">
          <mxGeometry relative="1" as="geometry">
            <mxPoint x="60" y="240" as="targetPoint" />
          </mxGeometry>
        </mxCell>
        <mxCell id="SKR75D1-UtrBje3gi9Va-1" value="go to your Job-Portal-Website (here it was jobs.ch)" style="rounded=0;whiteSpace=wrap;html=1;" parent="1" vertex="1">
          <mxGeometry y="120" width="120" height="60" as="geometry" />
        </mxCell>
        <mxCell id="SKR75D1-UtrBje3gi9Va-3" value="what are you looking for (here it was &quot;IT&quot;)" style="rounded=0;whiteSpace=wrap;html=1;" parent="1" vertex="1">
          <mxGeometry y="240" width="120" height="60" as="geometry" />
        </mxCell>
        <mxCell id="SKR75D1-UtrBje3gi9Va-4" style="edgeStyle=orthogonalEdgeStyle;rounded=0;orthogonalLoop=1;jettySize=auto;html=1;exitX=0.5;exitY=1;exitDx=0;exitDy=0;" parent="1" edge="1">
          <mxGeometry relative="1" as="geometry">
            <mxPoint x="60" y="360" as="targetPoint" />
            <mxPoint x="60" y="300" as="sourcePoint" />
          </mxGeometry>
        </mxCell>
        <mxCell id="SKR75D1-UtrBje3gi9Va-5" value="set location (here it was &quot;Zurich City&quot;)" style="rounded=0;whiteSpace=wrap;html=1;" parent="1" vertex="1">
          <mxGeometry y="360" width="120" height="60" as="geometry" />
        </mxCell>
        <mxCell id="SKR75D1-UtrBje3gi9Va-6" style="edgeStyle=orthogonalEdgeStyle;rounded=0;orthogonalLoop=1;jettySize=auto;html=1;exitX=0.5;exitY=1;exitDx=0;exitDy=0;" parent="1" edge="1">
          <mxGeometry relative="1" as="geometry">
            <mxPoint x="60" y="480" as="targetPoint" />
            <mxPoint x="60" y="420" as="sourcePoint" />
          </mxGeometry>
        </mxCell>
        <mxCell id="SKR75D1-UtrBje3gi9Va-7" value="Click search to get results" style="rounded=0;whiteSpace=wrap;html=1;" parent="1" vertex="1">
          <mxGeometry y="480" width="120" height="60" as="geometry" />
        </mxCell>
        <mxCell id="SKR75D1-UtrBje3gi9Va-8" style="edgeStyle=orthogonalEdgeStyle;rounded=0;orthogonalLoop=1;jettySize=auto;html=1;exitX=0.5;exitY=1;exitDx=0;exitDy=0;" parent="1" edge="1">
          <mxGeometry relative="1" as="geometry">
            <mxPoint x="60" y="600" as="targetPoint" />
            <mxPoint x="60" y="540" as="sourcePoint" />
          </mxGeometry>
        </mxCell>
        <mxCell id="SKR75D1-UtrBje3gi9Va-9" value="Click on the job-ad" style="rounded=0;whiteSpace=wrap;html=1;" parent="1" vertex="1">
          <mxGeometry y="719" width="120" height="60" as="geometry" />
        </mxCell>
        <mxCell id="SKR75D1-UtrBje3gi9Va-10" style="edgeStyle=orthogonalEdgeStyle;rounded=0;orthogonalLoop=1;jettySize=auto;html=1;exitX=0.5;exitY=1;exitDx=0;exitDy=0;" parent="1" edge="1">
          <mxGeometry relative="1" as="geometry">
            <mxPoint x="60" y="839" as="targetPoint" />
            <mxPoint x="60" y="779" as="sourcePoint" />
          </mxGeometry>
        </mxCell>
        <mxCell id="SKR75D1-UtrBje3gi9Va-11" value="Print out the whole web-page as .pdf" style="rounded=0;whiteSpace=wrap;html=1;" parent="1" vertex="1">
          <mxGeometry y="839" width="120" height="60" as="geometry" />
        </mxCell>
        <mxCell id="SKR75D1-UtrBje3gi9Va-12" style="edgeStyle=orthogonalEdgeStyle;rounded=0;orthogonalLoop=1;jettySize=auto;html=1;exitX=0.5;exitY=1;exitDx=0;exitDy=0;" parent="1" edge="1">
          <mxGeometry relative="1" as="geometry">
            <mxPoint x="60" y="959" as="targetPoint" />
            <mxPoint x="60" y="899" as="sourcePoint" />
          </mxGeometry>
        </mxCell>
        <mxCell id="Pu00z1AnlpVAPWl3Adhg-3" style="edgeStyle=orthogonalEdgeStyle;rounded=0;orthogonalLoop=1;jettySize=auto;html=1;exitX=0.5;exitY=1;exitDx=0;exitDy=0;entryX=0.5;entryY=0;entryDx=0;entryDy=0;" edge="1" parent="1" source="SKR75D1-UtrBje3gi9Va-13" target="SKR75D1-UtrBje3gi9Va-25">
          <mxGeometry relative="1" as="geometry" />
        </mxCell>
        <mxCell id="SKR75D1-UtrBje3gi9Va-13" value="read through the Job-Ad as .pdf and note what you wanted to analyze (e.g. demanded work-skills)" style="rounded=0;whiteSpace=wrap;html=1;" parent="1" vertex="1">
          <mxGeometry y="959" width="120" height="90" as="geometry" />
        </mxCell>
        <mxCell id="SKR75D1-UtrBje3gi9Va-16" style="edgeStyle=orthogonalEdgeStyle;rounded=0;orthogonalLoop=1;jettySize=auto;html=1;exitX=0.5;exitY=1;exitDx=0;exitDy=0;" parent="1" edge="1">
          <mxGeometry relative="1" as="geometry">
            <mxPoint x="60" y="120" as="targetPoint" />
            <mxPoint x="60.00000000000023" y="60.00000000000023" as="sourcePoint" />
          </mxGeometry>
        </mxCell>
        <mxCell id="SKR75D1-UtrBje3gi9Va-18" value="Start" style="rounded=1;whiteSpace=wrap;html=1;" parent="1" vertex="1">
          <mxGeometry width="120" height="60" as="geometry" />
        </mxCell>
        <mxCell id="SKR75D1-UtrBje3gi9Va-21" value="End" style="rounded=1;whiteSpace=wrap;html=1;" parent="1" vertex="1">
          <mxGeometry y="1464.5" width="120" height="60" as="geometry" />
        </mxCell>
        <mxCell id="SKR75D1-UtrBje3gi9Va-23" value="Start with the first job ad on the page." style="rounded=0;whiteSpace=wrap;html=1;" parent="1" vertex="1">
          <mxGeometry y="600" width="120" height="60" as="geometry" />
        </mxCell>
        <mxCell id="SKR75D1-UtrBje3gi9Va-24" style="edgeStyle=orthogonalEdgeStyle;rounded=0;orthogonalLoop=1;jettySize=auto;html=1;exitX=0.5;exitY=1;exitDx=0;exitDy=0;" parent="1" edge="1">
          <mxGeometry relative="1" as="geometry">
            <mxPoint x="59.44" y="720" as="targetPoint" />
            <mxPoint x="59.44" y="660" as="sourcePoint" />
          </mxGeometry>
        </mxCell>
        <mxCell id="Pu00z1AnlpVAPWl3Adhg-6" style="edgeStyle=orthogonalEdgeStyle;rounded=0;orthogonalLoop=1;jettySize=auto;html=1;exitX=0.5;exitY=1;exitDx=0;exitDy=0;entryX=0.5;entryY=0;entryDx=0;entryDy=0;" edge="1" parent="1" source="SKR75D1-UtrBje3gi9Va-25" target="SKR75D1-UtrBje3gi9Va-28">
          <mxGeometry relative="1" as="geometry" />
        </mxCell>
        <mxCell id="Pu00z1AnlpVAPWl3Adhg-7" value="yes" style="edgeLabel;html=1;align=center;verticalAlign=middle;resizable=0;points=[];" vertex="1" connectable="0" parent="Pu00z1AnlpVAPWl3Adhg-6">
          <mxGeometry x="-0.1381" relative="1" as="geometry">
            <mxPoint as="offset" />
          </mxGeometry>
        </mxCell>
        <mxCell id="Pu00z1AnlpVAPWl3Adhg-10" style="edgeStyle=orthogonalEdgeStyle;rounded=0;orthogonalLoop=1;jettySize=auto;html=1;exitX=1;exitY=0.5;exitDx=0;exitDy=0;entryX=0.5;entryY=1;entryDx=0;entryDy=0;" edge="1" parent="1" source="SKR75D1-UtrBje3gi9Va-25" target="Pu00z1AnlpVAPWl3Adhg-20">
          <mxGeometry relative="1" as="geometry">
            <mxPoint x="290" y="910" as="targetPoint" />
            <Array as="points">
              <mxPoint x="220" y="1150" />
            </Array>
          </mxGeometry>
        </mxCell>
        <mxCell id="Pu00z1AnlpVAPWl3Adhg-11" value="no" style="edgeLabel;html=1;align=center;verticalAlign=middle;resizable=0;points=[];" vertex="1" connectable="0" parent="Pu00z1AnlpVAPWl3Adhg-10">
          <mxGeometry x="-0.4771" relative="1" as="geometry">
            <mxPoint x="-7" as="offset" />
          </mxGeometry>
        </mxCell>
        <mxCell id="Pu00z1AnlpVAPWl3Adhg-24" value="yes" style="edgeLabel;html=1;align=center;verticalAlign=middle;resizable=0;points=[];" vertex="1" connectable="0" parent="Pu00z1AnlpVAPWl3Adhg-10">
          <mxGeometry x="0.8323" y="1" relative="1" as="geometry">
            <mxPoint as="offset" />
          </mxGeometry>
        </mxCell>
        <mxCell id="SKR75D1-UtrBje3gi9Va-25" value="Have all job ads on this page have been analyzed?" style="rhombus;whiteSpace=wrap;html=1;" parent="1" vertex="1">
          <mxGeometry x="20" y="1110" width="80" height="80" as="geometry" />
        </mxCell>
        <mxCell id="Pu00z1AnlpVAPWl3Adhg-2" style="edgeStyle=orthogonalEdgeStyle;rounded=0;orthogonalLoop=1;jettySize=auto;html=1;exitX=0.5;exitY=1;exitDx=0;exitDy=0;entryX=0.5;entryY=0;entryDx=0;entryDy=0;" edge="1" parent="1" source="SKR75D1-UtrBje3gi9Va-28" target="SKR75D1-UtrBje3gi9Va-21">
          <mxGeometry relative="1" as="geometry" />
        </mxCell>
        <mxCell id="Pu00z1AnlpVAPWl3Adhg-8" value="no" style="edgeLabel;html=1;align=center;verticalAlign=middle;resizable=0;points=[];" vertex="1" connectable="0" parent="Pu00z1AnlpVAPWl3Adhg-2">
          <mxGeometry x="-0.1156" relative="1" as="geometry">
            <mxPoint as="offset" />
          </mxGeometry>
        </mxCell>
        <mxCell id="Pu00z1AnlpVAPWl3Adhg-16" style="edgeStyle=orthogonalEdgeStyle;rounded=0;orthogonalLoop=1;jettySize=auto;html=1;exitX=1;exitY=0.5;exitDx=0;exitDy=0;entryX=1;entryY=0.5;entryDx=0;entryDy=0;" edge="1" parent="1" source="SKR75D1-UtrBje3gi9Va-28" target="SKR75D1-UtrBje3gi9Va-23">
          <mxGeometry relative="1" as="geometry">
            <Array as="points">
              <mxPoint x="310" y="1324" />
              <mxPoint x="310" y="630" />
            </Array>
          </mxGeometry>
        </mxCell>
        <mxCell id="Pu00z1AnlpVAPWl3Adhg-17" value="yes" style="edgeLabel;html=1;align=center;verticalAlign=middle;resizable=0;points=[];" vertex="1" connectable="0" parent="Pu00z1AnlpVAPWl3Adhg-16">
          <mxGeometry x="0.0114" relative="1" as="geometry">
            <mxPoint y="-1" as="offset" />
          </mxGeometry>
        </mxCell>
        <mxCell id="SKR75D1-UtrBje3gi9Va-28" value="Check if the current count of analyzed job-ads is less than the total desired number to analyze" style="rhombus;whiteSpace=wrap;html=1;" parent="1" vertex="1">
          <mxGeometry x="20" y="1250" width="80" height="149" as="geometry" />
        </mxCell>
        <mxCell id="Pu00z1AnlpVAPWl3Adhg-13" style="edgeStyle=orthogonalEdgeStyle;rounded=0;orthogonalLoop=1;jettySize=auto;html=1;exitX=1;exitY=0.5;exitDx=0;exitDy=0;entryX=1;entryY=0.5;entryDx=0;entryDy=0;" edge="1" parent="1" source="Pu00z1AnlpVAPWl3Adhg-12" target="SKR75D1-UtrBje3gi9Va-21">
          <mxGeometry relative="1" as="geometry" />
        </mxCell>
        <mxCell id="Pu00z1AnlpVAPWl3Adhg-14" value="no" style="edgeLabel;html=1;align=center;verticalAlign=middle;resizable=0;points=[];" vertex="1" connectable="0" parent="Pu00z1AnlpVAPWl3Adhg-13">
          <mxGeometry x="-0.1075" relative="1" as="geometry">
            <mxPoint as="offset" />
          </mxGeometry>
        </mxCell>
        <mxCell id="Pu00z1AnlpVAPWl3Adhg-12" value="Check if the current count of analyzed job-ads is less than the total desired number to analyze" style="rhombus;whiteSpace=wrap;html=1;" vertex="1" parent="1">
          <mxGeometry x="180" y="950" width="80" height="149" as="geometry" />
        </mxCell>
        <mxCell id="Pu00z1AnlpVAPWl3Adhg-18" value="Switch Page" style="rounded=0;whiteSpace=wrap;html=1;" vertex="1" parent="1">
          <mxGeometry x="250" y="740" width="120" height="60" as="geometry" />
        </mxCell>
        <mxCell id="Pu00z1AnlpVAPWl3Adhg-22" style="edgeStyle=orthogonalEdgeStyle;rounded=0;orthogonalLoop=1;jettySize=auto;html=1;exitX=0;exitY=0.5;exitDx=0;exitDy=0;entryX=1;entryY=0.5;entryDx=0;entryDy=0;" edge="1" parent="1" source="Pu00z1AnlpVAPWl3Adhg-20" target="SKR75D1-UtrBje3gi9Va-11">
          <mxGeometry relative="1" as="geometry" />
        </mxCell>
        <mxCell id="Pu00z1AnlpVAPWl3Adhg-20" value="Click on the next job-ad" style="rounded=0;whiteSpace=wrap;html=1;" vertex="1" parent="1">
          <mxGeometry x="160" y="839" width="120" height="60" as="geometry" />
        </mxCell>
      </root>
    </mxGraphModel>
  </diagram>
</mxfile>
